<svg xmlns="http://www.w3.org/2000/svg" viewBox="0 0 16 16"><path d="M8 .2a8 8 0 00-2.53 15.59c.4.07.55-.17.55-.39S6 14.71 6 14c-2.22.53-2.69-1-2.69-1a2.12 2.12 0 00-.89-1.17c-.72-.5.06-.49.06-.49a1.68 1.68 0 011.22.83 1.7 1.7 0 002.3.63 1.71 1.71 0 01.51-1.07c-1.78-.2-3.64-.89-3.64-3.95a3.11 3.11 0 01.82-2.15 2.85 2.85 0 01.11-2.11s.67-.22 2.2.82a7.54 7.54 0 014 0c1.53-1 2.2-.82 2.2-.82a2.85 2.85 0 01.08 2.11 3.11 3.11 0 01.82 2.15c0 3.07-1.87 3.75-3.65 4a1.88 1.88 0 01.55 1.43v2.19c0 .26.15.47.55.39A8 8 0 008 .2z" fill="#231e1b"/></svg>