<svg xmlns="http://www.w3.org/2000/svg" viewBox="0 0 203 53"><path d="M38.83,53a2.87,2.87,0,0,1-1.58-5.27l13-8.5L38.74,31.7,22,51.53a4.16,4.16,0,0,1-5.45.79L1.87,42.7A4.16,4.16,0,0,1,.68,37a4.21,4.21,0,0,1,1.19-1.19l15-9.84A2.87,2.87,0,1,1,20,30.72h0l-13,8.51,11.47,7.52L35.27,26.93a4.16,4.16,0,0,1,5.45-.8l14.67,9.63a4.16,4.16,0,0,1,0,6.94l-15,9.83A2.8,2.8,0,0,1,38.83,53Z" fill="#6271ff"/><path d="M28.63,20.65A10.33,10.33,0,1,1,39,10.33,10.32,10.32,0,0,1,28.63,20.65Zm0-14.91a4.59,4.59,0,1,0,4.58,4.59A4.58,4.58,0,0,0,28.63,5.74Z" fill="#ffdb01"/><path d="M88.14,9.82V22.44h-2.4V14.36l-3.35,4.93h-.66l-3.35-4.92v8.08H76V9.82h2.17l3.89,5.84L86,9.82Zm15.62-.08h-1.93L96.08,22.45h2.54l4.15-9.29,4.12,9.29h2.62Zm20,0h-1.93l-5.75,12.71h2.54l4.15-9.29,4.12,9.29h2.61Zm31.72.07v2.31h3.87V22.44h2.43V12.12h3.86V9.81Zm45.14,0V18l-6.44-8.19h-2V22.44h2.37V14l6.62,8.4H203V9.82ZM76,31.1v2.31h3.87V43.74H82.3V33.41h3.87V31.1Zm18.68,0V43.74H97.1V31.11ZM116.84,40v0c0,2.28-1.81,3.69-4.73,3.69h-5.67V31.11h5.45a4.74,4.74,0,0,1,3.4,1.18,3.11,3.11,0,0,1,.91,2.24v0A3.17,3.17,0,0,1,115,37.12,3.11,3.11,0,0,1,116.84,40Zm-2.42-.08c0-.65-.43-1.43-2.51-1.43h-3.09v3h3.33c.68,0,2.27-.15,2.27-1.51Zm-5.6-3.68h2.87c.62,0,2.09-.15,2.09-1.51v0c0-1.15-1.25-1.33-2-1.33h-3Zm44.36-5.14v7.26c0,1.48-.5,3.24-2.92,3.24-1.92,0-3-1.17-3-3.33V31.11h-2.41v7.26c0,3.42,2.05,5.55,5.34,5.55s5.36-2.11,5.36-5.66V31.11ZM131.78,31h-1.93l-5.74,12.7h2.55l4.15-9.28,4.12,9.28h2.61Zm13.14-13.52a3.79,3.79,0,0,0,2.75-3.7v0a3.73,3.73,0,0,0-1-2.66A5.14,5.14,0,0,0,143,9.82h-5.52v2.3h5.42c.89,0,2.39.22,2.39,1.72v0c0,1.13-.92,1.82-2.41,1.82h-5.4v6.76h2.41V18h2.46l3.34,4.48h3Zm31.37,2.64V17.23h6.45V14.94H174v7.51h9.57V20.16ZM174,9.82v2.29h9.48V9.82Z" fill="#333"/></svg>