<svg xmlns="http://www.w3.org/2000/svg" viewBox="0 0 16 16"><path d="M14.55 2.18H1.45A1.45 1.45 0 000 3.64v8.72a1.45 1.45 0 001.45 1.46h13.1A1.45 1.45 0 0016 12.36V3.64a1.45 1.45 0 00-1.45-1.46zm-13.1.73h13.1a.67.67 0 01.24 0l-6.3 6.3a.69.69 0 01-1 0L1.21 3a.67.67 0 01.24-.09zm-.72 9.45V3.64a.28.28 0 010-.13L5.23 8l-4.5 4.49a.28.28 0 010-.13zm13.82.73H1.45a1 1 0 01-.24 0l4.53-4.58L7 9.76a1.41 1.41 0 002 0l1.24-1.25 4.54 4.54a1 1 0 01-.23.04zm.72-.6L10.77 8l4.5-4.49a.28.28 0 010 .13v8.72a.28.28 0 010 .13z"/></svg>