<svg xmlns="http://www.w3.org/2000/svg" xmlns:xlink="http://www.w3.org/1999/xlink" width="1180" height="898" viewBox="0 0 1180 898">
    <defs>
        <clipPath id="clip">
            <polygon points="1110.28 897.37 0 722.2 0 0 1180 0 1180 898 1110.28 897.37" fill="none"/>
        </clipPath>
    </defs>
    <g>
        <path d="M1110.28,897.37,927.19,868.49l-26.78-4.23L49.13,730c-44.22-7-64.28-59.34-36.12-94.2L505,26.62c28.18-34.89,57.25-37.13,86.84,3.11l185.9,249,37.88,51.7,21.94,29.93,37.89,51.7L897.38,442l37.89,51.7L1173.7,819C1196.22,850.77,1154.49,904.39,1110.28,897.37Z" fill="#6271ff"/>
        <path d="M927.19,868.49l-26.78-4.22-97.59-97.76A8,8,0,0,1,814.1,755.2Z" fill="#727fff"/>
        <path d="M815.62,330.42V516.15a18.94,18.94,0,1,1-37.88,0V278.73Zm21.94,29.93V654a18.95,18.95,0,1,0,37.89,0V412.05ZM897.38,442V785.81a18.95,18.95,0,1,0,37.89,0V493.67Z" fill="#4d5dfa"/>
        <path d="M620.7,672.78A120.67,120.67,0,1,1,741.17,552.11h0C741.09,618.72,687.2,672.71,620.7,672.78Zm0-174.28a53.62,53.62,0,1,0,53.52,53.61h0a53.63,53.63,0,0,0-53.52-53.62Z" fill="#cbd0ff"/>
        <path d="M751.32,743.87a41.45,41.45,0,1,1,41.38-41.45A41.46,41.46,0,0,1,751.32,743.87Zm0-63.92a22.48,22.48,0,1,0,22.43,22.47A22.48,22.48,0,0,0,751.32,680Z" fill="#919bff"/>
    </g>
    <g clip-path="url(#clip)">
        <image width="565" height="664" transform="translate(28 215)" xlink:href="/static/images/maarten.png"/>
    </g>
</svg>