<svg xmlns="http://www.w3.org/2000/svg" viewBox="0 0 165 322.59"><path d="M0,161.28c0,88.95,71.89,161.31,160.24,161.31H165v-50h-4.76c-61,0-110.57-49.93-110.57-111.31S99.28,50,160.24,50H165V0h-4.76C71.89,0,0,72.35,0,161.28Z" fill="#31323a"/><path d="M162,21.9c-5.67.13-14.49.31-20,1.13l.63,5c4.72-.61,14.59-1.1,19.37-1.2Zm-25.89,2a135.75,135.75,0,0,0-14.52,3.35l1.37,4.8a131.22,131.22,0,0,1,14-3.22l-.84-4.93Zm-20.21,5.13a134.36,134.36,0,0,0-13.84,5.53l2.08,4.54a131,131,0,0,1,13.34-5.33l-1.58-4.74Zm-19.2,8.16a137.4,137.4,0,0,0-12.85,7.57L86.58,49A134,134,0,0,1,99,41.65l-2.27-4.44Zm-17.75,11a139.68,139.68,0,0,0-11.58,9.43l3.33,3.71a132.91,132.91,0,0,1,11.16-9.09l-2.91-4ZM63,61.75A138.4,138.4,0,0,0,53,72.83L56.83,76a136.1,136.1,0,0,1,9.68-10.68L63,61.75ZM49.32,77.55A136.7,136.7,0,0,0,41.05,90l4.27,2.54a135.07,135.07,0,0,1,8-12l-4-3ZM38.12,95.24a138.11,138.11,0,0,0-6.3,13.58l4.6,1.87A135,135,0,0,1,42.5,97.6l-4.38-2.36Zm-8.41,19.2a137.52,137.52,0,0,0-4.18,14.38L30.36,130a136.37,136.37,0,0,1,4-13.86l-4.68-1.66Zm-5.42,20.25a139.84,139.84,0,0,0-2,14.86l5,.39a132.34,132.34,0,0,1,1.9-14.32l-4.89-.93ZM22,155.54a141.35,141.35,0,0,0,.25,15l5-.35A136.73,136.73,0,0,1,27,155.72l-5-.18Zm5.74,20.4-4.94.57a141.55,141.55,0,0,0,2.49,14.78l4.85-1.11a133.47,133.47,0,0,1-2.4-14.24Zm3.78,19.85-4.79,1.32a139.3,139.3,0,0,0,4.69,14.23L36,209.51a131.81,131.81,0,0,1-4.52-13.72Zm6.74,19.05-4.54,2a137.08,137.08,0,0,0,6.78,13.35l4.29-2.51a134,134,0,0,1-6.53-12.87Zm9.53,17.8-4.19,2.7a143,143,0,0,0,8.7,12.17l3.87-3.14a134.31,134.31,0,0,1-8.38-11.73ZM59.86,248.8l-3.73,3.3a136.74,136.74,0,0,0,10.42,10.71l3.36-3.68a136.05,136.05,0,0,1-10-10.33ZM74.22,263,71,266.77a138.77,138.77,0,0,0,11.9,9l2.77-4.15A132.34,132.34,0,0,1,74.22,263Zm16.31,11.82L87.94,279a135.82,135.82,0,0,0,13.11,7.12l2.11-4.53a132.74,132.74,0,0,1-12.63-6.85Zm17.88,9.2-1.92,4.61a133.86,133.86,0,0,0,14,5l1.41-4.79A130.34,130.34,0,0,1,108.41,284Zm19.06,6.37-1.2,4.85A134.42,134.42,0,0,0,140.9,298l.67-4.95a131.91,131.91,0,0,1-14.1-2.73Zm19.81,3.38-.46,5q6.42.6,12.88.6h2v-5a138.61,138.61,0,0,1-14.42-.58Z" fill="#9a9999"/></svg>