<svg id="visual" xmlns="http://www.w3.org/2000/svg" viewBox="0 0 419.3 89.7"><style>.st0{fill:#fff}</style><path class="st0" d="M24 41.7c-2.6-6.9-.4-14.9 5.3-19.6 5.5-4.5 13.4-5.3 19.7-1.8 3.5 2 6.3 5.1 7.8 8.9 1.6-.1 3.3 0 4.9.2.8-7.3-1.5-14.8-6.4-20.3C50.6 3.8 44 .5 37 .1 22.5-.9 9.6 10.5 8.7 25c-.5 8.9 3.6 17.6 10.8 22.9 1.1-2.3 2.6-4.4 4.5-6.2zM65.8 18.9h-1.5c1 3.7 1.2 7.5.7 11.3 3.3 1.1 6.4 2.9 8.9 5.4 4.8 4.8 7.2 11.8 6.3 18.6-.9 6.8-5 12.9-10.8 16.3-3.3 1.9-7.1 2.9-10.9 3-1.8 4.2-4.4 8-7.8 11 8.3 4 18.1 4.5 26.8 1.4 7.2-2.6 13.4-7.7 17.5-14.2 8.6-13.7 6.2-32-5.5-43.2-6.3-6.1-14.9-9.6-23.7-9.6z"/><path class="st0" d="M47.8 70.9c-5.2 3.8-12.1 4.7-18 2.3-5.1-2-9.1-6.2-10.9-11.4-1.2-3.4-1.3-7-.5-10.5-4.1-2.8-7.4-6.5-9.7-10.9-10.1 10-11.4 26.3-2.9 37.7 7.9 10.5 22.4 14.5 34.5 9.2 6.4-2.8 11.6-7.8 14.6-14.1-2.6-.4-5-1.1-7.1-2.3zm122.8-39.6c1.2 1.2 1.3 3 .8 4.6l-13.1 36.9c-.3.9-.9 1.6-1.7 2-.8.5-1.7.6-2.6.5-1.5-.1-2.7-1-3.5-2.6l-8.9-23.2-8.2 23.2c-.3.8-.8 1.4-1.5 1.8-.6.4-1.3.7-2 .7-.9.1-1.7-.1-2.5-.6s-1.4-1.2-1.7-2l-13.2-36.9c-.5-1.5-.3-3.3.9-4.5 2-2.1 5.7-1.4 6.7 1.4l10.2 28.7 8.1-21.2c1.3-3.3 6-3.4 7.3 0L154 61l10-28.4c.9-2.6 4.6-3.3 6.6-1.3zm47.9 22.5c-.8.7-1.7 1.1-2.8 1.1h-30c.4 4.2 2 7.5 4.7 10 2.2 2 4.9 3.2 7.9 3.6 2.9.4 6.2.2 8.9-1.1 1.7-.8 3.2-1.8 4.5-3.1 1.5-.9 3.6-1.1 4.9.3 1.7 1.8 1 4.2-.7 5.6-6.9 6.9-18.8 7.6-27.1 3-3.5-1.9-6.2-4.6-8.1-8.1-4-7.3-3.9-17.1.1-24.4 2-3.6 4.5-6.4 7.8-8.3 6.3-3.8 14.3-3.8 20.6-.1 3.2 1.9 5.7 4.5 7.7 7.8 1.9 3.3 2.9 7 3 11.1-.2 1.1-.6 1.9-1.4 2.6zm-27.9-14c-2.3 1.8-3.9 4.6-4.6 8.3h25.2v-.7c-.3-3-1.6-5.5-4.1-7.4-4.7-3.8-11.7-3.9-16.5-.2zM229 16.3c0-1.1.3-2.2 1.1-2.9 1.5-1.6 4.3-1.5 5.8 0 1.1 1.2 1.2 2.5 1.2 4v19.7c1.4-2 3.4-3.8 6-5.3s5.4-2.2 8.4-2.2c3.9 0 7.4 1 10.5 3s5.6 4.7 7.4 8.3c3.7 7.3 3.6 16.7 0 24-2.4 4.9-6.6 8.8-11.9 10.5-.2 0-.5.1-.7.2-.7.2-1.5.3-2.3.4-1.4.2-2.9.3-4.3.2-2.8-.1-5.6-.5-8.2-1.4-3.3-1.2-6.4-3.2-8.5-5.9-1.8-2.3-2.9-5.1-3.6-7.9-.5-2.1-.6-4.3-.8-6.4m28.3 12c2.1-1.4 3.8-3.3 5-5.7 2.4-4.9 2.4-11.2 0-16.1-1.2-2.4-2.9-4.3-5-5.6-4.3-2.7-10.2-2.7-14.5 0-2.1 1.4-3.8 3.2-5 5.6-2.5 4.9-2.4 11.3 0 16.2 1.2 2.4 2.9 4.3 5 5.7 4.3 2.7 10.2 2.7 14.5-.1zm39.1-45.4c-.9 1.1-1.3 2.5-1.3 4.2v6h8.4c1.1 0 2.1.4 2.8 1.1 1.4 1.4 1.5 3.9 0 5.3-.7.7-1.6 1-2.8 1h-8.4v32.4c0 1.1-.4 2.1-1.2 2.9-1.5 1.6-4.3 1.6-5.8 0-.8-.8-1.2-1.8-1.2-2.9V38.8h-5.3c-1.1 0-2-.3-2.7-1-1.5-1.4-1.5-3.9 0-5.3.7-.7 1.6-1.1 2.7-1.1h5.3v-6c0-4 1.3-7.2 3.8-9.5 1.9-1.8 4.4-2.8 6.9-3.2 3-.5 6.3-.6 9 .7 2.3 1.1 3 3.9 1.2 5.9-1.2 1.3-2.7 1.1-4.2.7-2.2-.6-5.5-1-7.2 1.2zm25.9 52.9c-1.6 1.6-4.2 1.6-5.8 0-.8-.8-1.2-1.8-1.2-2.9V16.3c0-3.5 4.5-5.5 7-2.9.8.8 1.2 1.8 1.2 2.9v54.9c0 1.1-.4 2.1-1.2 2.9zm50.2-42.3c.8.8 1.2 1.8 1.2 2.9v22.7c0 5.9-1.6 10.5-4.9 13.8-3.6 3.6-8.7 4.9-13.7 4.9-5.1 0-10.3-1.2-13.9-4.9-3.2-3.3-4.9-7.9-4.9-13.8V34.7c0-1.1.4-2.1 1.2-2.9 1.5-1.6 4.3-1.6 5.8 0 .8.8 1.2 1.8 1.2 2.9v22.7c0 4 1.2 8.3 5.1 10.1 4 1.9 10.2 1.5 13.4-1.8 1.8-1.9 2.7-4.7 2.7-8.4V34.7c0-1.1.4-2.1 1.2-2.9 1.3-1.6 4.1-1.6 5.6 0zm46.7 39.6c0 1.8-1.3 3.5-3.1 4-1.7.5-3.3-.3-4.4-1.6l-11.4-14.4-11.3 14.4c-.4.6-.9 1-1.5 1.3-1.5.8-3.2.4-4.5-.6-1.5-1.3-1.7-3.6-.3-5.1l12.8-16-13.1-16.5c-1.2-1.6-1.1-3.9.4-5.3 1.8-1.8 4.7-1.5 6.2.5l11.7 14.8 11-14.7c1.4-1.9 4.2-2.5 6-.7 1.4 1.3 1.5 3.7.2 5.2l-12.6 16 13 16.5c.6.5.9 1.3.9 2.2z"/></svg>