<svg xmlns="http://www.w3.org/2000/svg" viewBox="0 0 16 16">
  <path d="M10.85,15.4a.8.8,0,0,1-.44-1.47L14,11.56l-3.2-2.11L6.14,15a1.14,1.14,0,0,1-1.52.22L.52,12.53a1.17,1.17,0,0,1-.33-1.61,1.15,1.15,0,0,1,.33-.33l4.2-2.75a.8.8,0,0,1,1.11.23.81.81,0,0,1-.24,1.11h0L2,11.56l3.2,2.1L9.86,8.12a1.16,1.16,0,0,1,1.52-.22l4.1,2.69a1.16,1.16,0,0,1,.33,1.6,1.19,1.19,0,0,1-.33.34l-4.19,2.74A.78.78,0,0,1,10.85,15.4ZM8,6.37a2.89,2.89,0,1,1,2.88-2.89A2.9,2.9,0,0,1,8,6.37ZM8,2.2A1.28,1.28,0,1,0,9.28,3.48,1.28,1.28,0,0,0,8,2.2Z"/>
</svg>
